<?xml version="1.0" encoding="UTF-8"?>
<svg id="Layer_1" xmlns="http://www.w3.org/2000/svg" version="1.1" viewBox="0 0 1000 1000">
  <!-- Generator: Adobe Illustrator 29.3.0, SVG Export Plug-In . SVG Version: 2.1.0 Build 146)  -->
  <g>
    <path d="M339.5,702.6c0,33.2-9.8,54.4-47,63.7-33.1,8.2-41.7-7.8-42.2-23.8l32.8-8.2c.4,3.6,1.5,9.2,11.1,6.8,10.2-2.5,12.1-10.9,12.1-26.7v-7.7c-4.8,9.9-13,15.7-23.8,18.4-24.2,6-33.5-12.5-33.5-47.2s13.1-63,36-68.7c13.9-3.5,19.3,1.5,21.5,5.9.2-2.9.8-7,1.3-9.7l32.2-8c-.2,7.1-.4,19.9-.4,36.3v68.9ZM283.1,668.5c0,22.8,3.9,29.2,11.9,27.2,9.7-2.4,11.5-12.2,11.5-35.7s-.4-29.4-11-26.8c-8.1,2-12.4,10.9-12.4,35.4Z"/>
    <path d="M388.8,650.9c0,15.1,1.5,26.2,11.9,23.6,9.4-2.3,10.8-10.4,11.1-15.8l32.1-8c-.8,7.9-4.2,39.3-43.9,49.2-38.4,9.6-44.7-18.2-44.7-49.6s15.6-62.7,45.3-70.1c34.1-8.5,43.9,12.2,43.9,44.1s-.1,10.3-.3,12.7l-55.6,13.9ZM411.6,624c0-11.2-.5-21.5-11-18.9-10.6,2.6-11.6,13.9-11.6,24.6l22.5-5.6Z"/>
    <path d="M490.9,625.5c0,15.1,1.5,26.2,11.9,23.6,9.4-2.3,10.8-10.4,11.1-15.8l32.1-8c-.8,7.9-4.2,39.3-43.9,49.2-38.4,9.6-44.7-18.2-44.7-49.6s15.6-62.7,45.3-70.1c34.1-8.5,43.9,12.2,43.9,44.1s-.1,10.3-.3,12.7l-55.6,13.9ZM513.7,598.5c0-11.2-.5-21.5-11-18.9-10.6,2.6-11.6,13.9-11.6,24.5l22.5-5.6Z"/>
    <path d="M595.8,581.4c7.1-17.6,14.8-36.9,22.1-53.3l36.2-9c-8.4,17.1-16.7,32.6-25.3,48.8,0,0,26.5,66.4,26.5,66.4l-37.5,9.4-12-43.9c-2.9,5.4-7.6,14.1-10,18.2v31.2l-33.3,8.3v-155.3l33.3-8.3v87.6Z"/>
    <path d="M689.1,510.3c5.5,27.1,12,58.5,13.2,72.9l.8-.2c2.3-17.9,7.5-48.6,13.1-79.4l33.7-8.4-30.2,122c-9.5,38.5-19.6,47.1-42.5,52.8-4.6,1.2-9.7,2-13.8,2.4v-26.5c2.1-.3,5.7-1,8-1.6,9.1-2.3,12.6-6.6,14.4-16.7l-33.4-108.2,36.7-9.1Z"/>
    <path d="M286.4,893.2v48.4l-33.6,8.4v-121.9c0-15.4,0-26.2-.3-33.3l32.2-8c.4,3,.9,7.5,1,11.6,3.6-7.4,10-16.3,25.3-20.1,20.5-5.1,32.6,8.5,32.6,49.7s-13.9,65.1-36.1,70.7c-10,2.5-17.4.4-21-5.5ZM309.5,837.6c0-26.6-3.8-31.3-12.2-29.2-9.6,2.4-11.5,11.4-11.5,34.5s1.2,34.4,11.3,31.8c8.5-2.1,12.4-11.4,12.4-37.1Z"/>
    <path d="M445.7,825.9c0,19,0,30.4.2,36.1l-31.9,7.9c-.7-3.4-1.1-8.4-1.3-11.4-5.7,11.5-13.8,17-25.6,20-17.1,4.3-28.4-1.6-28.4-27.2v-83.1l33.6-8.4v76.9c0,9.1,1.8,13.2,8.9,11.5,7.6-1.9,10.9-7.1,10.9-20.2v-73.2l33.6-8.4v79.3Z"/>
    <path d="M463.4,778.5c0-23.8,0-30.3-.2-36.2l32.2-8c.4,2.4.9,7.1,1,10.3,3.6-6.6,11.1-15.4,25.1-18.9,19.6-4.9,29.1,5.2,29.1,27.2v83.1l-33.6,8.4v-76.8c0-8.9-1.6-13.6-9.5-11.6-7.2,1.8-10.6,6.5-10.6,19.3v74.1l-33.6,8.4v-79.2Z"/>
    <path d="M603.7,755.1c7.1-17.6,14.8-36.9,22.1-53.3l36.2-9c-8.4,17.1-16.7,32.6-25.2,48.8,0,0,26.5,66.4,26.5,66.4l-37.5,9.4-12-43.9c-2.9,5.4-7.6,14.1-10,18.2v31.2l-33.3,8.3v-155.3l33.3-8.3v87.6Z"/>
    <path d="M697.9,763.4c.2,7,2.8,13.5,11.2,11.3,6.6-1.6,9.5-6,9.5-11.8s-3-9.2-15.6-10.7c-26.8-3.1-34.3-10.4-34.3-28.7s10.6-37.2,39.6-44.4c33.8-8.4,40.1,11.6,40.1,26.2l-30.2,7.5c0-5.2-.8-13.1-9.6-10.9-5.3,1.3-8.1,5.4-8.1,10.5s3.4,8.1,16.7,9.6c24.6,2.9,34,10.4,34,28.7s-13.5,40.5-42.6,47.8c-31.7,7.9-41.9-7.9-42.1-27.3l31.5-7.9Z"/>
  </g>
  <g>
    <path d="M453.4,497l-113.9-25.1c-7.7-1.7-15.7.2-21.8,5.1-6.2,4.9-9.7,12.3-9.7,20.2v89.1l11.1-2.7v-67.5h41.1c2-.2,3.9.6,5.2,2.1,1.3,1.6,1.7,3.6,1.2,5.5l-5.2,18.5c-1.9,6.7.3,13.6,5.8,18,3.2,2.5,6.9,3.8,10.7,3.8s5.3-.6,7.8-1.9l39.3-16.3c2.8-1.2,4.2-4.4,3-7.2-1.2-2.8-4.4-4.2-7.2-3l-39.5,16.4-.5.2c-3.3,1.7-5.9,0-6.6-.6s-3-2.8-2-6.4l5.2-18.5c1.5-5.5.3-11.3-3.4-15.6-3.6-4.3-9-6.5-14.5-6.1h-40.3v-7.8c0-4.5,2-8.7,5.5-11.6,3.5-2.8,8.1-3.9,12.5-2.9l113.9,25.1c4.8,1.1,9.4,3.4,13,6.7l29.6,26.6,13.1-3.2-35.3-31.7c-5.1-4.6-11.4-7.8-18.1-9.3Z"/>
    <path d="M744.1,293.5c7.1-5.8,8.1-16.3,2.3-23.4-5.7-6.9-15.9-8-22.9-2.6-11.9-11.8-27.4-18.9-44.4-18.9s-10.2.7-15,2h0c0-.1-18.1,5-18.1,5-9.9-14.5-21.4-27.7-34.3-39.1-32.3-28.4-71.2-43.9-113.8-45.7,7.2-18.5,22.5-27.4,35.7-29.6,5.9,4.3,13.1,6.8,20.7,6.8s6-.4,9.1-1.2l106.9-28.5-5.1-19.1,67.5-18c8.4-2.2,13.5-10.9,11.2-19.4-1.1-4.1-3.7-7.5-7.4-9.6-3.7-2.1-7.9-2.7-12-1.6l-67.5,18-4.9-18.3-106.9,28.5c-9.1,2.4-16.7,8.2-21.4,16.4-.2.3-.3.5-.4.8-24.9,1.2-68.7,25.4-76.2,78.8-59.5,11.5-109,45.2-143.5,98.3-33.4,51.4-51.7,120-51.7,193.2v133.7l11.1-2.7v-131c0-178.3,95.1-260.8,183.1-280,0,1.6-.1,3.1-.1,4.7v25.2c0,7.6,8.4,15.4,24.4,15.4s23.4-8,23.4-15.4v-22c0-4.5.4-8.6,1.1-12.4,41.1,1.3,78.5,15.8,109.5,43,11.3,10,21.5,21.5,30.3,33.9l-43.3,12.2c-13.6,3.7-25.4,11.9-34.3,23-9.3-5.2-19.7-8.2-30.7-8.2s-10.5.8-15.5,2.1h0c0-.1-74.5,20.8-74.5,20.8-31.3,8.5-53.2,40.1-53.2,76.8s31.1,79,69.2,79,13.3-1.4,20.5-3.5l66.6-17.5c16-3.5,30.1-13.2,40.2-26.9,8.4,4.3,17.6,6.7,27.4,6.7s13-1.4,20-3.4l46.6-12.3v90l11.1-2.7v-90.3l7.2-1.9c31.5-6.8,55.3-38.4,55.3-76.3s-2-21.2-5.5-30.7l2.5-2.1ZM547.8,89.5l96.1-25.7,12.4,46.5-96.1,25.7c-12.8,3.4-26-4.2-29.5-17.1-3.4-12.8,4.2-26,17.1-29.5ZM482.5,216.2c0,.9-2.9,4.3-12.3,4.3s-13-3.3-13.3-4.3v-25.2c0-57.2,41.4-79.6,62.3-83.4-.7,4.7-.5,9.5.8,14.2,1,3.7,2.5,7,4.5,10.1-20.5,6.1-42.1,24.7-42.1,62.3v22ZM606.9,412c-7.6,0-14.9-1.8-21.5-5,6.6-12.2,10.5-26.4,10.5-41.8s-2.1-22-5.8-31.7l2.6-2.1c7.1-5.8,8.1-16.3,2.3-23.4-5.7-7-15.9-8-23-2.6-1.9-1.9-3.8-3.6-5.8-5.2,7.4-8.9,16.9-15.5,28-18.5l36.8-10.4c-12.4,14.1-20.1,33.5-20.1,55,0,34.4,19.7,63.5,46.8,73.7l-33.8,8.9c-6.4,1.9-11.4,3-17,3ZM452.2,453.2c-32.1,0-58.2-30.5-58.2-67.9s18.5-58.9,45-66.1l38.3-10.8c-12.9,14.4-20.9,34.5-20.9,56.7,0,35.4,20.3,65.4,48.4,75.7l-35.1,9.2c-6.5,1.9-11.7,3.1-17.5,3.1ZM519.3,348.6c-.7.6-1.4,1.3-2,2-5.2,6-5.6,15.1-.3,21.5,1.5,1.8,3.4,3.2,5.4,4.2,2.3,1.2,4.9,1.8,7.5,1.8,3.7,0,7.5-1.2,10.6-3.8l7.5-6.1,33.1-27.2c2.4,7.5,3.9,15.7,3.9,24.2,0,15.3-4.4,29.4-11.7,40.8-9.3,14.6-23.4,24.7-39.6,27.1-2.4.4-4.9.6-7.4.6-32.3,0-58.6-30.7-58.6-68.4s16.8-55.7,39.9-64.8c5.9-2.3,12.2-3.6,18.7-3.6,10.6,0,20.6,3.4,29.2,9.2,2.8,1.9,5.5,4,8,6.4l-16,13.2-28.1,23.1ZM736,326.3c0,33.9-21.8,61.9-49.8,66-2.4.3-4.7.6-7.2.6-31.4,0-57-29.9-57-66.6s16.3-54.1,38.8-63c5.7-2.3,11.8-3.5,18.2-3.5,13.6,0,26,5.6,35.8,14.8l-42.8,35.2c-.7.5-1.2,1.2-1.7,1.8-5.4,6-5.8,15.2-.5,21.7,1.6,1.9,3.5,3.4,5.7,4.4,2.3,1.1,4.7,1.7,7.2,1.7,3.7,0,7.5-1.2,10.6-3.8l39.2-32.3c2.3,7.2,3.6,15,3.6,23.1Z"/>
  </g>
</svg>